<svg xmlns="http://www.w3.org/2000/svg" width="22.39" height="16" viewBox="0 0 22.39 16">
    <path data-name="Path 12590" d="M9.648 19.586a.8.8 0 0 1-.548-.216 7.418 7.418 0 0 1 0-10.759.8.8 0 0 1 1.087 1.167 5.835 5.835 0 0 0 0 8.425.8.8 0 0 1-.544 1.383zm-3.2 2.142a.8.8 0 0 0 0-1.127 9.136 9.136 0 0 1 0-13.221.811.811 0 0 0-1.124-1.167 10.743 10.743 0 0 0 0 15.555.8.8 0 0 0 1.135-.04zm10.818-2.358a7.418 7.418 0 0 0 0-10.759.8.8 0 0 0-1.1 1.167 5.811 5.811 0 0 1 0 8.425.8.8 0 0 0 1.1 1.167zm3.773 2.4a10.719 10.719 0 0 0 0-15.555.8.8 0 0 0-1.088 1.165 9.136 9.136 0 0 1 0 13.221.8.8 0 1 0 1.087 1.167zm-6.251-7.78a1.6 1.6 0 1 0-1.6 1.6 1.6 1.6 0 0 0 1.6-1.6z" style="fill:#fff" transform="translate(-1.991 -5.985)"/>
</svg>
